<svg width="100" height="20" viewBox="0 0 100 20" fill="none" xmlns="http://www.w3.org/2000/svg">
<path d="M7.06953 7.82V15.5H3.75453V7.82H0.364531V5.18H10.4445V7.82H7.06953ZM11.9547 5.18H20.8797V7.655H15.2697V9.08H20.0697V11.45H15.2697V13.025H20.9847V15.5H11.9547V5.18ZM27.6999 5C29.2299 5 30.4399 5.385 31.3299 6.155C32.2199 6.915 32.6649 8.005 32.6649 9.425H29.4999C29.4999 8.825 29.3399 8.35 29.0199 8C28.7099 7.65 28.2649 7.475 27.6849 7.475C27.0149 7.475 26.5199 7.685 26.1999 8.105C25.8899 8.525 25.7349 9.11 25.7349 9.86V10.82C25.7349 11.56 25.8899 12.145 26.1999 12.575C26.5199 12.995 27.0049 13.205 27.6549 13.205C28.2949 13.205 28.7799 13.04 29.1099 12.71C29.4399 12.38 29.6049 11.915 29.6049 11.315H32.6649C32.6649 12.725 32.2299 13.805 31.3599 14.555C30.4999 15.305 29.2799 15.68 27.6999 15.68C25.9399 15.68 24.6049 15.23 23.6949 14.33C22.7949 13.43 22.3449 12.1 22.3449 10.34C22.3449 8.58 22.7949 7.25 23.6949 6.35C24.6049 5.45 25.9399 5 27.6999 5ZM41.4147 15.5V11.585H37.7697V15.5H34.4547V5.18H37.7697V8.945H41.4147V5.18H44.7297V15.5H41.4147ZM59.325 15.5L54.99 10.49V15.5H51.945V5.18H54.84L59.175 10.265V5.18H62.22V15.5H59.325ZM64.4401 5.18H73.3651V7.655H67.7551V9.08H72.5551V11.45H67.7551V13.025H73.4701V15.5H64.4401V5.18ZM83.0203 15.5L81.6853 9.215H81.6253L80.2903 15.5H76.6453L74.2303 5.18H77.6803L78.8653 11.03H78.9253L80.0953 5.18H83.3653L84.6103 11.03H84.6703L85.7803 5.18H89.0803L86.6653 15.5H83.0203ZM94.6003 5C95.9203 5 97.0053 5.27 97.8553 5.81C98.7053 6.34 99.1403 7.13 99.1603 8.18V8.36H96.0553V8.3C96.0553 8 95.9453 7.75 95.7253 7.55C95.5053 7.35 95.1703 7.25 94.7203 7.25C94.2803 7.25 93.9403 7.315 93.7003 7.445C93.4703 7.575 93.3553 7.735 93.3553 7.925C93.3553 8.195 93.5153 8.395 93.8353 8.525C94.1553 8.655 94.6703 8.79 95.3803 8.93C96.2103 9.1 96.8903 9.28 97.4203 9.47C97.9603 9.65 98.4303 9.95 98.8303 10.37C99.2303 10.79 99.4353 11.36 99.4453 12.08C99.4453 13.3 99.0303 14.205 98.2003 14.795C97.3803 15.385 96.2803 15.68 94.9003 15.68C93.2903 15.68 92.0353 15.41 91.1353 14.87C90.2453 14.33 89.8003 13.375 89.8003 12.005H92.9353C92.9353 12.525 93.0703 12.875 93.3403 13.055C93.6103 13.225 94.0303 13.31 94.6003 13.31C95.0203 13.31 95.3653 13.265 95.6353 13.175C95.9153 13.085 96.0553 12.9 96.0553 12.62C96.0553 12.37 95.9003 12.185 95.5903 12.065C95.2903 11.935 94.7953 11.8 94.1053 11.66C93.2653 11.48 92.5703 11.295 92.0203 11.105C91.4703 10.905 90.9903 10.58 90.5803 10.13C90.1703 9.68 89.9653 9.07 89.9653 8.3C89.9653 7.17 90.4003 6.34 91.2703 5.81C92.1503 5.27 93.2603 5 94.6003 5Z" fill="#60A5FA"/>
</svg>
